<?xml version="1.0" encoding="UTF-8" standalone="no"?>
<!-- Created with Inkscape (http://www.inkscape.org/) -->

<svg
   width="300"
   height="500"
   viewBox="0 0 67.159092 111.93182"
   version="1.1"
   id="superheroLRG"
   inkscape:export-filename="asteroidHero.svg"
   inkscape:export-xdpi="19.540926"
   inkscape:export-ydpi="19.540926"
   inkscape:version="1.2.2 (b0a8486, 2022-12-01)"
   sodipodi:docname="asteroidHero.svg"
   xmlns:inkscape="http://www.inkscape.org/namespaces/inkscape"
   xmlns:sodipodi="http://sodipodi.sourceforge.net/DTD/sodipodi-0.dtd"
   xmlns="http://www.w3.org/2000/svg"
   xmlns:svg="http://www.w3.org/2000/svg">
  <sodipodi:namedview
     id="namedview2410"
     pagecolor="#ffffff"
     bordercolor="#666666"
     borderopacity="1.0"
     inkscape:showpageshadow="2"
     inkscape:pageopacity="0.0"
     inkscape:pagecheckerboard="0"
     inkscape:deskcolor="#d1d1d1"
     inkscape:document-units="px"
     showgrid="false"
     inkscape:zoom="3.3638608"
     inkscape:cx="202.29731"
     inkscape:cy="390.17667"
     inkscape:window-width="1920"
     inkscape:window-height="1027"
     inkscape:window-x="0"
     inkscape:window-y="25"
     inkscape:window-maximized="0"
     inkscape:current-layer="layer1" />
  <defs
     id="defs2405" />
  <g
     inkscape:label="Layer 1"
     inkscape:groupmode="layer"
     id="layer1">
    <path
       d="m 52.403491,40.443861 c -1.556898,0.394932 -4.291721,-0.174593 -8.157383,-2.126477 -3.864901,-1.95182 -5.862287,-4.860562 -5.862287,-4.860562 -0.668326,2.453058 -2.210034,8.042688 -2.475845,9.014809 -0.03038,0.09042 -0.03873,0.144238 -0.03873,0.144238 0,0 -0.516434,0.341758 -1.632083,0.683516 -0.212654,0.06071 -0.448083,0.129168 -0.714654,0.182343 -0.963757,0.235452 -2.254844,0.417708 -3.89604,0.432907 -4.373743,0.04564 -6.73643,-1.253126 -6.73643,-1.253126 l -0.03798,-0.09946 c -0.151896,-0.455684 -0.81262,-2.421928 -1.267538,-4.244622 -0.403275,-1.602484 -1.389815,-3.850487 -1.831063,-4.799809 -0.129103,-0.281006 -0.204301,-0.455685 -0.204301,-0.455685 -1.610059,-0.820219 -1.822709,-2.126476 -1.822709,-2.126476 0,0 -1.261466,4.4269 -2.69609,6.812359 -1.435383,2.392305 -2.954308,3.044691 -2.954308,3.044691 0,0 -0.03873,-1.487782 -0.402514,-3.37125 l -0.03038,-0.144238 c -0.387326,-1.95182 -2.0353571,-3.994768 -2.0353571,-3.994768 0,0 0.2119006,-0.911347 1.1240031,-3.212524 0.911354,-2.30193 2.77963,-4.169446 2.77963,-4.169446 -0.258216,-2.210802 0.08355,-4.169446 2.042194,-6.25037 0.592381,-0.637962 1.291085,-1.071602 1.97536,-1.367031 1.39741,-0.615165 2.726468,-0.630363 2.939118,-0.630363 h 0.03038 l 0.02202,-0.0086 0.137457,-0.04564 c 1.245518,-0.410109 4.22185,-0.73669 4.22185,-0.73669 0.251383,0.630363 0.426059,1.435383 0.820979,1.95182 0.151902,0.204301 0.334162,0.364556 0.569595,0.455684 0.8506,0.326559 3.812501,-0.197412 4.169449,-1.207552 0.143549,-0.387311 0.212654,-1.101224 0.258216,-1.830294 1.161977,0.811866 5.20991,3.463133 5.20991,3.463133 0,0 1.177165,0.04564 2.574575,0.401756 l 0.01528,0.0086 c 0.08278,0.02282 0.174678,0.04564 0.258216,0.06824 0.820219,0.227853 1.686006,0.569611 2.42952,1.070849 l 0.151881,0.09881 c 2.126494,1.518934 3.691745,5.726355 3.691745,5.726355 l 0.15948,0.03724 c 3.645419,0.896924 6.136454,5.871412 6.136454,5.871412 l -0.09113,0.08353 c -0.258219,0.273406 -0.956923,1.253126 -0.349353,3.348474 0.15188,0.502012 0.334162,1.033626 0.515674,1.53411 0.494409,1.352608 1.00325,2.499386 1.00325,2.499386"
       style="fill:#e74e17;fill-opacity:1;fill-rule:nonzero;stroke:none;stroke-width:0.0759462"
       id="path1057"
       inkscape:export-filename="../../../../../../../../Users/johnfriedman/Google Drive/My Drive/Numina/Projects/wrapping/lukas/20230113/superhero.png"
       inkscape:export-xdpi="96"
       inkscape:export-ydpi="96" />
    <path
       d="M 38.500018,20.102431 C 31.509172,24.577942 26.88101,33.758323 26.88101,33.758323 c 0,0 -2.95127,-4.297043 -4.571202,-9.050502 -0.713894,-2.091559 -1.167293,-3.870228 -1.450572,-5.206884 -0.164044,-0.776172 -0.271888,-1.404232 -0.33948,-1.854599 1.146787,-0.432133 4.358553,-0.786807 4.358553,-0.786807 0.255179,0.632645 0.427578,1.435383 0.822497,1.956383 0.151127,0.202795 0.336442,0.364535 0.571875,0.455663 0.84832,0.32277 3.809461,-0.198273 4.168687,-1.206023 0.140492,-0.393404 0.213407,-1.107296 0.255938,-1.831047 1.158939,0.807302 5.213708,3.45859 5.213708,3.45859 0,0 1.182482,0.04779 2.589004,0.409334"
       style="fill:#fa8e28;fill-opacity:1;fill-rule:nonzero;stroke:none;stroke-width:0.0759462"
       id="path1059" />
    <path
       d="m 20.858476,19.497902 h -0.003 l -0.11468,-0.02282 c -0.979709,-0.189878 -2.042196,-0.569589 -3.211768,-1.192353 1.39741,-0.615164 2.726468,-0.630363 2.939118,-0.630363 h 0.03038 l 0.02202,-0.0086 0.05925,-0.01938 c -0.02045,0.0065 -0.04026,0.01507 -0.06,0.02153 0.0676,0.450367 0.174679,1.076919 0.33872,1.851563 m 4.84157,-0.683516 c -0.02885,-0.03789 -0.05621,-0.0775 -0.08278,-0.117758 0.02659,0.04026 0.05468,0.07965 0.08355,0.117758 -7.6e-4,0 -7.6e-4,0 -7.6e-4,0 m -0.735917,-1.727777 c -0.02734,-0.07664 -0.05543,-0.151127 -0.08506,-0.224042 7.57e-4,0 7.57e-4,0 7.57e-4,0 0.02887,0.07212 0.05696,0.147252 0.0843,0.224042"
       style="fill:#db2a0b;fill-opacity:1;fill-rule:nonzero;stroke:none;stroke-width:0.0759462"
       id="path1061" />
    <path
       d="m 22.342466,19.636887 c -0.442768,0 -0.904521,-0.0394 -1.388297,-0.124648 l -0.09569,-0.01507 c -0.164044,-0.774644 -0.271129,-1.401197 -0.338721,-1.851564 0.01981,-0.0065 0.03948,-0.01507 0.06,-0.02153 l 0.07823,-0.02583 c 1.231089,-0.405567 4.155779,-0.729844 4.221093,-0.73669 0.02962,0.07298 0.05772,0.147252 0.08506,0.224043 0.192912,0.539213 0.357705,1.158941 0.653137,1.610062 0.02659,0.04026 0.05393,0.07965 0.08278,0.117758 -0.98502,0.500484 -2.090798,0.822501 -3.35758,0.822501"
       style="fill:#ed4d14;fill-opacity:1;fill-rule:nonzero;stroke:none;stroke-width:0.0759462"
       id="path1063" />
    <path
       d="m 33.666044,13.541455 c -1.109575,1.041979 -2.704445,0.55213 -2.704445,0.55213 0,0 -0.07974,0.06222 -0.223282,0.169425 -0.637947,0.471637 -2.555589,1.805257 -4.496014,2.336117 -0.400996,0.110009 -0.793638,0.18751 -1.179445,0.23696 l -0.184538,0.02346 c -1.83638,0.195906 -3.462388,-0.241501 -4.43298,-0.973628 -1.202988,-0.912122 -1.495382,-2.213837 -1.07464,-3.255817 0.32353,-0.799702 0.476944,-1.524229 1.019199,-2.925447 0.161008,-0.421498 0.359985,-0.90603 0.609849,-1.471077 0.145809,-0.334158 0.287076,-0.641751 0.42226,-0.925017 0.678958,-1.442983 1.172609,-2.242685 1.338171,-2.498633 l 0.08581,0.14962 0.09494,0.145745 c 0.129857,0.19526 0.285557,0.379734 0.470866,0.562012 l 0.145809,0.132828 c 0.151127,0.136057 0.318215,0.265807 0.507322,0.393404 0.378211,0.255172 0.839204,0.500484 1.398927,0.737443 0.184539,0.0775 0.372896,0.150481 0.565801,0.221007 0.09569,0.03638 0.19442,0.07061 0.290874,0.101828 1.976878,0.65921 4.211974,0.852123 5.291171,0.429097 -0.02202,0.0267 -0.187595,0.24303 -0.35239,0.576435 -0.197456,0.393404 -0.396439,0.950076 -0.348593,1.544746 l 0.0024,0.02497 0.01744,0.161675 c 0.05315,0.334159 0.162515,0.68808 0.292391,1.026802 0.111645,0.293901 0.239991,0.572625 0.362264,0.817162 0.236953,0.487589 0.450362,0.826312 0.450362,0.826312 l 0.003,-0.0022 c 0.01529,-0.01507 0.08581,-0.07599 0.197456,-0.167058 h 0.003 l 0.161761,-0.130675 h 0.0015 c 0.06379,-0.04715 0.127597,-0.09881 0.200491,-0.153495 0.2248,-0.164044 0.501244,-0.351639 0.799713,-0.517965 l 0.0084,-0.0022 0.0752,-0.04413 h 0.003 c 0.200491,-0.106994 0.408591,-0.202794 0.616684,-0.273406 l 0.205808,-0.06609 c 0.470106,0.230113 0.325808,1.321457 -0.645542,2.238143"
       style="fill:#f2b5aa;fill-opacity:1;fill-rule:nonzero;stroke:none;stroke-width:0.0759462"
       id="path1065" />
    <path
       d="m 25.062858,16.836001 c 3.450995,-1.471077 4.909921,-3.851994 6.159995,-5.818237 0.111645,0.293901 0.239991,0.572624 0.362264,0.817162 0.236952,0.487589 0.450362,0.826311 0.450362,0.826311 l 0.003,-0.0022 c 0.01528,-0.01507 0.08581,-0.07599 0.197455,-0.167058 h 0.003 l 0.161762,-0.130675 h 0.0015 c 0.06379,-0.04715 0.127597,-0.09881 0.200491,-0.153495 0.2248,-0.164044 0.501244,-0.351639 0.799713,-0.517965 l 0.0084,-0.0022 0.0752,-0.04413 h 0.003 c 0.200491,-0.106995 0.408592,-0.202795 0.616685,-0.273407 l 0.205808,-0.06609 c 0.169361,0.08288 0.258216,0.276442 0.258976,0.533896 7.6e-4,0.457966 -0.282519,1.117177 -0.904519,1.704247 -0.571875,0.536931 -1.273619,0.666789 -1.818152,0.666789 -0.511879,0 -0.886292,-0.114745 -0.886292,-0.114745 0,0 -0.07974,0.06222 -0.223283,0.169426 -0.637947,0.471636 -2.555589,1.805256 -4.496014,2.336117 -0.400996,0.110008 -0.793638,0.187509 -1.179444,0.236959"
       style="fill:#f39d96;fill-opacity:1;fill-rule:nonzero;stroke:none;stroke-width:0.0759462"
       id="path1067" />
    <path
       d="m 31.613977,7.68296 h -0.0024 l 0.0024,-0.0015 z"
       style="fill:#f2b5aa;fill-opacity:1;fill-rule:nonzero;stroke:none;stroke-width:0.0759462"
       id="path1069" />
    <path
       d="m 57.530617,102.6066 c -0.363021,0.96983 -1.071599,2.50091 -1.790811,3.99705 -1.088308,2.25788 -2.202438,4.4269 -2.202438,4.4269 0,0 -0.521752,-9.07406 -0.521752,-9.68162 0,-0.60681 -1.781697,-4.862072 -3.213282,-7.943985 -1.092108,-2.346731 -3.667442,-7.511828 -4.834736,-9.843381 -0.365301,-0.729091 -0.591622,-1.181718 -0.591622,-1.181718 l -0.09113,-0.164044 C 43.043125,79.988294 40.86271,76.240346 38.627613,72.427103 38.482557,72.179509 38.338259,71.93269 38.193201,71.685095 34.921438,66.109135 31.650435,60.602258 31.12033,59.713688 c -0.04557,-0.08353 -0.07139,-0.124647 -0.07139,-0.124647 -0.255938,0.179113 -0.768575,0.439732 -1.39589,0.729844 l -0.0039,0.0022 c -1.926754,0.88476 -4.937263,2.044455 -4.937263,2.044455 0.431375,0.119266 0.845282,0.270371 1.243241,0.442014 3.586937,1.563734 5.775708,5.086886 7.612088,7.981183 2.039154,3.211017 5.815199,10.113773 5.815199,10.113773 1.782458,0.435168 3.386441,1.562958 3.386441,1.562958 0,0 0.166325,1.30249 -0.03417,3.398591 -0.04936,0.527072 -0.121505,1.10426 -0.225561,1.724742 -0.520989,3.080385 -0.997933,4.729176 -1.302477,4.729176 -0.302265,0 -0.476181,-0.866548 -0.997173,-3.080385 -0.522475,-2.21464 -1.95406,-6.467615 -2.129497,-6.728126 -0.170868,-0.261243 -7.682717,-5.123332 -11.936463,-7.857396 -0.721489,-0.46479 -1.627527,-1.037415 -2.635333,-1.678391 -0.689593,-0.43745 -1.430828,-0.906052 -2.194086,-1.392866 -4.67449,-2.977846 -10.214765,-6.597444 -10.711454,-7.653094 -0.347073,-0.73669 -0.303024,-1.638931 0.243788,-2.924694 0.09113,-0.212697 0.198231,-0.438957 0.318215,-0.677445 0.599216,-1.181718 1.559936,-2.659619 2.953548,-4.558286 3.343912,-4.557533 10.548168,-8.378375 10.548168,-8.378375 L 23.284139,43.707794 22.8877,42.658215 c 0,0 2.364965,1.30249 6.740986,1.257669 1.641197,-0.01507 2.927725,-0.202794 3.896039,-0.432133 1.612338,-0.376676 2.342182,-0.869583 2.342182,-0.869583 0,0 0.205808,0.110224 0.575671,0.388087 0.520992,0.395685 1.373109,1.135411 2.437874,2.393833 v 0.0022 c 0.202772,0.239973 0.413907,0.498203 0.633392,0.776173 0.325049,0.417687 0.567318,0.843749 0.744272,1.271339 1.018438,2.420399 -0.04861,4.805105 -0.04861,4.805105 0,0 0.05393,0.126155 0.147338,0.349358 0.422262,1.015392 1.638921,4.068436 2.065738,6.597444 0.490611,2.892036 1.130839,10.829926 1.208303,11.796729 l 0.0075,0.09645 c 0.909076,0.281006 1.761193,0.679727 2.553311,1.168801 3.851232,2.378635 6.261005,6.856428 6.910345,9.988458 0.780727,3.77755 1.476394,16.626139 1.476394,16.626139 0.302267,0.261243 2.952028,3.731996 2.952028,3.731996"
       style="fill:#e74e17;fill-opacity:1;fill-rule:nonzero;stroke:none;stroke-width:0.0759462"
       id="path1071" />
    <path
       d="m 30.398079,16.004372 0.006,0.01507 -0.006,-0.01507"
       style="fill:#f2b5aa;fill-opacity:1;fill-rule:nonzero;stroke:none;stroke-width:0.0759462"
       id="path1073" />
    <path
       d="m 30.404914,16.020324 -0.0075,-0.01722 z m 0.333403,-1.7574 c -0.08581,0.06523 -0.19823,0.145745 -0.331125,0.23696 -0.830852,0.583259 -2.489517,1.640437 -4.164889,2.099157 -0.464033,0.127662 -0.919709,0.211836 -1.363994,0.26049 0.176961,0.440485 0.314417,0.961486 0.512637,1.412606 0.117715,0.265054 0.255938,0.507309 0.43745,0.694904 0.126068,0.132828 0.271127,0.23696 0.444285,0.304536 0.84832,0.32277 3.809461,-0.198273 4.168687,-1.206023 0.140492,-0.393404 0.213407,-1.107296 0.255938,-1.831047 0.04101,-0.765538 0.04405,-1.544746 0.04101,-1.971583"
       style="fill:#f2b5aa;fill-opacity:1;fill-rule:nonzero;stroke:none;stroke-width:0.0759462"
       id="path1075" />
    <path
       d="m 35.622417,9.17606 c -0.01894,0.455684 -0.344035,0.987298 -0.667566,1.406514 -0.322012,0.416955 -0.640987,0.720738 -0.640987,0.720738 -1.111853,0.303029 -2.27383,1.357925 -2.27383,1.357925 0,0 -0.910593,-1.464252 -1.105775,-2.670276 C 30.743628,8.819103 31.566131,7.743712 31.613977,7.68296 30.376054,8.168246 27.610092,7.842483 25.463853,6.931093 23.970751,6.298448 23.193063,5.612672 22.763208,4.809912 22.697138,4.688494 22.64321,4.566128 22.5946,4.437778 22.49738,4.195501 22.424485,3.941083 22.3698,3.675276 22.098671,2.34622 22.827755,0.81742603 24.030743,0.35414303 c 2.702165,-1.04198 6.772121,0.391121 8.041183,2.01866397 0.828574,1.060192 1.531835,2.781898 1.917642,3.854254 0.210372,0.576435 0.329607,0.963768 0.329607,0.963768 0,0 1.334374,1.073884 1.303236,1.985231"
       style="fill:#22268c;fill-opacity:1;fill-rule:nonzero;stroke:none;stroke-width:0.0759462"
       id="path1077" />
    <path
       d="m 12.079094,40.790936 c 0,0 -1.953335,0.997933 -3.7775619,0.607586 C 6.4780632,41.007379 3.3969262,35.797482 1.9205322,31.631071 0.71526517,28.223374 0.69703917,26.121934 0.73045517,25.471076 v -0.0022 c 0.0069,-0.145745 0.0183,-0.218725 0.0183,-0.218725 -0.435171,-0.302275 -1.172608,-1.258422 -0.435171,-2.734816 0.73971503,-1.474134 1.43234603,-2.255603 2.08396403,-2.125745 0.650859,0.130675 1.476394,1.344255 1.476394,1.344255 0,0 0.261255,-0.47618 0.695668,-0.04176 0.432893,0.432907 0.261254,1.120212 0.261254,1.120212 0,0 0.606051,-0.166412 0.562003,0.529353 -0.04101,0.694905 -0.73668,1.952574 -2.214592,1.431573 0,0 -0.170868,0.695679 0,1.258444 0.175433,0.565025 3.646937,5.427869 6.4258086,7.251338 0,0 1.2174162,1.12779 1.8234672,3.210996 0.107081,0.369873 0.197455,0.748078 0.273406,1.123248 0.328848,1.640438 0.378212,3.174548 0.378212,3.174548"
       style="fill:#fa8e28;fill-opacity:1;fill-rule:nonzero;stroke:none;stroke-width:0.0759462"
       id="path1079" />
    <path
       d="m 61.523869,26.507738 c 0,2.042948 -1.739167,6.470623 -3.864901,9.333037 -2.126494,2.863167 -4.078312,4.473982 -5.255477,4.603086 0,0 -0.546812,-1.230329 -1.048059,-2.635336 -0.167079,-0.463262 -0.334922,-0.941723 -0.470866,-1.398161 -0.607569,-2.095347 0.09113,-3.075067 0.349353,-3.348474 l 0.09113,-0.08353 c 0,0 2.810009,-3.341628 6.591372,-6.037737 v -1.215129 c 0,0 -0.386567,0.136703 -0.94933,-0.478461 0,0 -0.782245,0.129168 -0.394159,-0.691116 0,0 -0.08355,-0.08353 -0.182278,-0.24303 l -0.09873,-0.167058 c -0.212654,-0.417708 -0.395679,-1.161976 0.02278,-2.194849 0.690351,-1.693591 1.739168,-3.645411 2.255602,-2.582162 0.41011,0.835418 1.997386,3.50113 2.658119,5.59723 0.182278,0.569611 0.295429,1.101225 0.295429,1.541711"
       style="fill:#fa8e28;fill-opacity:1;fill-rule:nonzero;stroke:none;stroke-width:0.0759462"
       id="path1081" />
    <path
       d="m 36.442636,43.002492 -0.05468,0.0022 c 0,0 -1.278935,0.101828 -2.863171,0.478461 -0.95996,0.234678 -2.031562,0.565801 -2.996837,1.040473 0,0 -4.490699,0 -7.243749,-0.81643 l -0.39644,-1.049579 -0.03416,-0.09881 c 2.412051,0.962993 9.278347,1.77867 13.052874,-0.09106 -0.02659,0.09709 -0.03948,0.145745 -0.03948,0.145745 0,0 0.205809,0.110223 0.575671,0.388086"
       style="fill:#22268c;fill-opacity:1;fill-rule:nonzero;stroke:none;stroke-width:0.0759462"
       id="path1083" />
    <path
       d="m 40.209568,52.251224 c 0,0 -0.09494,-0.223289 0,0 -0.461753,0.821748 -0.906798,1.995113 -1.649551,2.779638 -2.30193,2.429506 -7.51108,4.558286 -7.51108,4.558286 -1.042742,0.736669 -6.336951,2.776581 -6.336951,2.776581 0.431374,0.119266 0.845281,0.270371 1.243241,0.442014 -2.322436,0.09106 -3.738832,1.133883 -3.372013,3.899851 0.286317,2.146239 0.684276,4.743599 0.925026,6.266321 -0.689593,-0.43745 -1.430828,-0.906051 -2.194086,-1.392865 -0.53846,-3.700866 -1.986753,-8.605453 -1.986753,-8.605453 -2.734823,-0.06308 -6.542765,-1.285009 -8.480913,-1.972335 0.09113,-0.212698 0.198231,-0.438958 0.318215,-0.677445 3.612761,1.483993 8.988232,1.693612 8.988232,1.693612 0,0 7.033378,-3.212524 12.632892,-7.42451 4.666895,-3.510236 5.980005,-7.325007 6.094683,-9.196312 0.202772,0.239973 0.413907,0.498202 0.633392,0.776173 2.17206,2.776581 0.695666,6.076444 0.695666,6.076444"
       style="fill:#fa8e28;fill-opacity:1;fill-rule:nonzero;stroke:none;stroke-width:0.0759462"
       id="path1085" />
    <path
       d="m 46.50399,76.039855 c 0,2.497879 -1.049576,6.019503 -1.536392,7.521709 -0.365301,-0.729091 -0.591622,-1.181718 -0.591622,-1.181718 l -0.09113,-0.164044 c 0.708579,-3.01354 1.518923,-8.041181 0.916671,-9.127228 -0.599216,-1.078427 -4.062363,-0.871843 -6.573904,-0.661471 -0.145056,-0.247594 -0.289354,-0.494413 -0.434412,-0.742008 1.96093,-0.757938 4.297036,-0.753374 5.437748,-0.69034 l 0.0075,0.09645 c 0.909076,0.281006 1.761193,0.679727 2.553311,1.168801 0.181503,0.723773 0.312139,1.90702 0.312139,3.779853"
       style="fill:#fa8e28;fill-opacity:1;fill-rule:nonzero;stroke:none;stroke-width:0.0759462"
       id="path1087" />
    <path
       d="m 33.410864,11.687609 -1.534113,1.363975 c 0,0 -1.107296,0.130675 -2.535084,0.130675 -0.702503,0 -1.483989,-0.03423 -2.247249,-0.130675 -2.314839,-0.291619 -3.779082,-2.474327 -4.0092,-2.833545 0,0 -1.137674,0.359218 -1.788532,0.197413 -0.331125,-0.08288 -0.661492,-0.408581 -0.906798,-0.710857 0.161008,-0.421498 0.359986,-0.906029 0.609849,-1.471076 0.145809,-0.334159 0.287077,-0.641752 0.42226,-0.925018 1.020716,0.148759 1.825747,0.601494 2.457619,1.518912 0,0 2.462177,-0.13821 4.22109,0.968332 1.306275,0.823254 1.821949,1.466513 1.999664,1.742201 0.06228,0.09408 0.08353,0.146606 0.08353,0.146606 0,0 0.653138,0.10721 1.401208,0.150481 h 0.0045 c 0.659972,0.0394 1.390574,0.02971 1.812836,-0.145099 l 0.0084,-0.0022"
       style="fill:#e74e17;fill-opacity:1;fill-rule:nonzero;stroke:none;stroke-width:0.0759462"
       id="path1089" />
    <path
       d="m 23.670004,8.753787 c 0.479981,-0.239973 0.06532,-1.5303 -0.618962,-1.920668 -0.683516,-0.390369 -1.149824,-0.502767 -1.149824,-0.502767 0,0 0.498207,0.488343 0.824017,1.212095 0.325807,0.723019 0.488333,1.439947 0.944769,1.21134"
       style="fill:#22268c;fill-opacity:1;fill-rule:nonzero;stroke:none;stroke-width:0.0759462"
       id="path1091" />
    <path
       d="m 26.436725,10.056278 c -0.459475,-0.03272 -0.74807,-0.651612 0.878698,-1.107296 1.628285,-0.454931 2.083963,0.455684 2.311801,1.107296 0,0 -0.585544,-0.683516 -1.464242,-0.455685 -0.879457,0.227853 -1.270581,0.488343 -1.726257,0.455685"
       style="fill:#22268c;fill-opacity:1;fill-rule:nonzero;stroke:none;stroke-width:0.0759462"
       id="path1093" />
    <path
       d="m 35.622417,9.17606 c -0.01894,0.455684 -0.344035,0.987298 -0.667566,1.406514 -0.322012,0.416955 -0.640987,0.720738 -0.640987,0.720738 -1.111853,0.303029 -2.27383,1.357925 -2.27383,1.357925 0,0 -0.910593,-1.464252 -1.105775,-2.670276 C 30.743628,8.819103 31.566131,7.743712 31.613977,7.68296 30.376054,8.168246 27.610092,7.842483 25.463853,6.931093 23.970751,6.298448 23.193063,5.612672 22.763208,4.809912 22.697138,4.688494 22.64321,4.566128 22.5946,4.437778 c 0.95996,1.183246 2.580652,2.425717 5.849377,2.493315 4.211975,0.0859 4.646388,-0.82629 4.646388,-0.82629 0,0 0.424539,0.206669 0.899203,0.122279 0.210372,0.576436 0.329607,0.963768 0.329607,0.963768 0,0 1.334374,1.073884 1.303236,1.985232"
       style="fill:#140f6b;fill-opacity:1;fill-rule:nonzero;stroke:none;stroke-width:0.0759462"
       id="path1095" />
    <path
       d="m 29.78975,24.44731 c 0,1.294137 -1.050337,2.343716 -2.343701,2.343716 -0.273407,0 -0.53618,-0.04715 -0.778448,-0.135196 -0.911354,-0.318206 -1.565251,-1.187789 -1.565251,-2.20852 0,-1.29487 1.048816,-2.344449 2.343699,-2.344449 0.494411,0 0.959201,0.156509 1.335895,0.419216 v 0.0022 c 0.609847,0.418462 1.007806,1.124776 1.007806,1.922197"
       style="fill:#22268c;fill-opacity:1;fill-rule:nonzero;stroke:none;stroke-width:0.0759462"
       id="path1097" />
    <path
       d="m 29.78975,24.44731 c 0,1.294137 -1.050337,2.343716 -2.343701,2.343716 -0.273407,0 -0.53618,-0.04715 -0.778448,-0.135196 1.594111,-1.57284 2.033839,-3.164667 2.114343,-4.130717 0.609847,0.418462 1.007806,1.124776 1.007806,1.922197"
       style="fill:#140f6b;fill-opacity:1;fill-rule:nonzero;stroke:none;stroke-width:0.0759462"
       id="path1099" />
    <path
       d="m 30.407192,14.499884 c 0,0.07815 -0.885533,3.050008 -4.578796,4.467157 -0.181503,-0.187509 -0.319735,-0.42985 -0.43745,-0.694904 -0.19823,-0.45112 -0.335683,-0.972121 -0.512637,-1.412606 0.444285,-0.04865 0.899961,-0.132828 1.363994,-0.26049 1.675372,-0.45872 3.334037,-1.515898 4.164889,-2.099157"
       style="fill:#f3938d;fill-opacity:1;fill-rule:nonzero;stroke:none;stroke-width:0.0759462"
       id="path1101" />
    <path
       d="m 22.312845,32.977608 c 0,0 -1.227291,0.629588 -2.556349,0.539213 -0.129857,-0.284041 -0.210372,-0.453402 -0.210372,-0.453402 -1.606262,-0.823255 -1.82271,-2.125745 -1.82271,-2.125745 0,0 -1.260706,4.428429 -2.693811,6.813909 -1.432346,2.388495 -2.950511,3.039353 -2.950511,3.039353 0,0 -0.04176,-1.483972 -0.406312,-3.36744 1.333616,-1.0944 3.826171,-3.451765 3.922623,-5.879011 0,0 1.562213,-1.171836 1.171089,-2.995306 0,0 2.042195,4.297797 5.546351,4.428429"
       style="fill:#e41600;fill-opacity:1;fill-rule:nonzero;stroke:none;stroke-width:0.0759462"
       id="path1103" />
    <path
       d="m 52.406529,40.444636 c -1.562214,0.390346 -4.297797,-0.174593 -8.16118,-2.128027 -3.861865,-1.952573 -5.860008,-4.862822 -5.860008,-4.862822 -0.671366,2.453811 -2.210794,8.046498 -2.478885,9.014809 -0.02659,0.09709 -0.03948,0.145745 -0.03948,0.145745 0,0 -0.513397,0.346322 -1.629806,0.682762 1.760434,-3.102408 1.935108,-7.845233 1.935108,-7.845233 -1.824227,1.367785 -3.907431,0.780715 -3.907431,0.780715 4.493737,-1.041226 7.031858,-6.156959 7.031858,-6.156959 l -0.391124,1.664743 c 0,0 3.191259,3.842112 7.229319,5.273706 2.055103,0.729845 3.924899,0.9197 5.266109,0.930335 0.489854,1.349573 1.005529,2.500161 1.005529,2.500161"
       style="fill:#e41600;fill-opacity:1;fill-rule:nonzero;stroke:none;stroke-width:0.0759462"
       id="path1105" />
    <path
       d="m 24.516046,35.321303 c 0,0 3.525421,-0.846053 6.223031,0.455663 0,0 -4.139068,0.195905 -6.223031,-0.455663"
       style="fill:#e41600;fill-opacity:1;fill-rule:nonzero;stroke:none;stroke-width:0.0759462"
       id="path1107" />
    <path
       d="m 45.186323,27.108479 c -0.01055,2.24572 -0.419983,4.175517 -0.419983,4.175517 0,-3.162407 -2.494072,-8.06624 -3.578585,-10.040836 l 0.148092,0.09946 c 2.128771,1.521194 3.691745,5.730144 3.691745,5.730144 l 0.158726,0.03574"
       style="fill:#e41600;fill-opacity:1;fill-rule:nonzero;stroke:none;stroke-width:0.0759462"
       id="path1109" />
    <path
       d="m 33.410864,11.687609 -1.534113,1.363975 c 0,0 -1.107296,0.130675 -2.535084,0.130675 0.245306,-0.461755 0.487574,-1.007793 0.758703,-1.644227 0.06228,0.09408 0.08353,0.146606 0.08353,0.146606 0,0 0.653138,0.10721 1.401208,0.150481 h 0.0045 c 0.659972,0.0394 1.390574,0.02971 1.812836,-0.145099 l 0.0084,-0.0022"
       style="fill:#e41600;fill-opacity:1;fill-rule:nonzero;stroke:none;stroke-width:0.0759462"
       id="path1111" />
    <path
       d="m 55.739806,106.60365 c -0.202773,-1.70729 -0.480739,-3.96289 -0.880215,-5.45067 -0.715414,-2.669502 -2.083206,-13.999158 -4.884101,-20.054355 -1.025273,-2.219133 -2.28674,-4.070718 -3.474539,-5.526596 -0.01981,-1.604744 -0.142775,-2.650534 -0.3091,-3.312027 3.851231,2.378635 6.261004,6.856428 6.910344,9.988458 0.780728,3.77755 1.476394,16.626139 1.476394,16.626139 0.302267,0.261243 2.952028,3.732001 2.952028,3.732001 -0.363021,0.96983 -1.071599,2.50091 -1.790811,3.99705 v 0"
       style="fill:#d61c07;fill-opacity:1;fill-rule:nonzero;stroke:none;stroke-width:0.0759462"
       id="path1113" />
    <path
       d="m 24.715783,62.364222 v 0 c 0.12228,-0.04715 3.046963,-1.1764 4.933466,-2.042948 l 0.0039,-0.0022 c 0.06228,-0.02885 0.123033,-0.05769 0.183032,-0.0859 0.543775,-0.254419 0.982745,-0.481497 1.21286,-0.644012 v 0 c 0,0 0.02581,0.0409 0.07139,0.124647 v 0 0 c -0.852875,0.377473 -1.418673,0.588599 -1.467279,0.605305 l -0.0039,0.0022 c -1.886506,0.866551 -4.811194,1.995869 -4.933469,2.042951"
       style="fill:#ec5c4d;fill-opacity:1;fill-rule:nonzero;stroke:none;stroke-width:0.0759462"
       id="path1115" />
    <path
       d="M 42.734779,85.864248 C 41.588752,84.413688 39.937681,82.840826 39.428082,82.074535 38.645837,80.902698 31.873713,71.786858 27.446049,67.533883 25.87776,66.026338 24.278333,65.007157 22.85814,64.317549 c 0.52175,-1.013864 1.628285,-1.452089 3.097087,-1.509806 v 0 c 3.586937,1.563734 5.775708,5.086886 7.612087,7.981182 2.039155,3.211018 5.8152,10.113773 5.8152,10.113773 1.782458,0.435169 3.38644,1.562959 3.38644,1.562959 0,0 0.06532,0.508837 0.06456,1.401971 0,0.536178 -0.02355,1.210588 -0.09873,1.99662 v 0 M 43.63095,70.994755 c -0.259736,-0.01507 -0.580988,-0.02583 -0.945529,-0.02583 -0.07595,0 -0.154163,7.53e-4 -0.234676,0.0015 -1.139191,-4.983594 -3.220117,-11.488382 -4.851442,-15.064688 0.353909,-0.284794 0.678959,-0.577188 0.96072,-0.8749 0.742752,-0.784525 1.187797,-1.95789 1.649551,-2.779638 v 0 0 0 0 c 0,0 0.05393,0.126155 0.147338,0.349357 0.422262,1.015393 1.63892,4.068437 2.065737,6.597445 0.490612,2.892036 1.130839,10.829926 1.208303,11.796729 M 19.360057,63.086467 c -0.419982,-0.09193 -0.74655,-0.142731 -0.955402,-0.170072 0.317455,0.03186 0.626554,0.05231 0.922746,0.0592 0,0 0.01141,0.03789 0.03266,0.11087 m 5.351929,-0.720738 v 0 0 m 0,-7.53e-4 h 7.6e-4 -7.6e-4 m 7.6e-4,0 c 7.6e-4,0 0.0015,-7.54e-4 0.003,-7.54e-4 -0.0015,0 -0.0024,7.54e-4 -0.003,7.54e-4 m 0.003,-7.54e-4 c 0.126068,-0.0493 3.245942,-1.25388 5.120293,-2.131062 -0.06,0.0282 -0.120751,0.05705 -0.183032,0.0859 l -0.0039,0.0022 c -1.886474,0.866499 -4.811162,1.995818 -4.933437,2.0429 m -4.562848,-0.344794 c 0,0 -0.0054,0 -0.01442,-7.53e-4 0.06075,-0.02583 0.122279,-0.05167 0.185314,-0.07901 -0.111645,0.05231 -0.17089,0.07965 -0.17089,0.07965 m 10.967395,-2.305735 v 0 c -0.04557,-0.08353 -0.07139,-0.124648 -0.07139,-0.124648 0,0 3.874016,-1.583474 6.416695,-3.577058 -2.118899,1.70119 -4.739802,2.994552 -6.345306,3.701598 m 9.089242,-7.462464 v 0 0 m 0,0 c 0,0 7.6e-4,-7.53e-4 7.6e-4,-0.0015 0,7.75e-4 -7.6e-4,0.0015 -7.6e-4,0.0015 m -7.6e-4,-7.53e-4 v 0 0 m 0,-7.75e-4 c -0.03113,-0.07363 -0.04177,-0.09795 -0.04177,-0.09795 0,0 0.03569,0.08439 0.04177,0.09795 m 0.0015,-7.54e-4 c 7.6e-4,-0.0015 0.0024,-0.0043 0.003,-0.0065 -7.6e-4,0.0022 -0.0024,0.0043 -0.003,0.0065 m 0.0039,-0.0086 c 0.0024,-0.0065 0.006,-0.01507 0.01141,-0.02734 -0.0054,0.01292 -0.009,0.02153 -0.01141,0.02734 m 0.01141,-0.02799 c 0.0039,-0.0086 0.0084,-0.01938 0.01356,-0.03186 -0.0054,0.01292 -0.0099,0.02282 -0.01356,0.03186 m 0.01356,-0.03272 c 0.0015,-0.0043 0.003,-0.0086 0.0045,-0.01292 -0.0015,0.0043 -0.003,0.0086 -0.0045,0.01292 m 0.0054,-0.01292 c 0,-7.53e-4 7.6e-4,-0.0015 7.6e-4,-0.0022 0,7.75e-4 0,0.0015 -7.6e-4,0.0022 m 0.0015,-0.0022 c 0,-7.53e-4 0,-0.0015 7.58e-4,-0.0022 -7.58e-4,7.75e-4 -7.58e-4,0.0015 -7.58e-4,0.0022 m 0.0015,-0.0043 c 0,-7.75e-4 7.6e-4,-0.0022 7.6e-4,-0.0022 0,7.53e-4 -7.6e-4,0.0022 -7.6e-4,0.0022 m 0.003,-0.0086 c 0,0 7.6e-4,-7.54e-4 7.6e-4,-7.54e-4 0,0 -7.6e-4,7.54e-4 -7.6e-4,7.54e-4 m 7.6e-4,-0.0022 c 7.6e-4,-7.75e-4 7.6e-4,-7.75e-4 7.6e-4,-0.0015 0,7.54e-4 0,7.54e-4 -7.6e-4,0.0015 m 0.0015,-0.0043 c 7.58e-4,0 7.58e-4,-0.0015 7.58e-4,-0.0022 0,7.75e-4 0,0.0022 -7.58e-4,0.0022"
       style="fill:#d61c07;fill-opacity:1;fill-rule:nonzero;stroke:none;stroke-width:0.0759462"
       id="path1117" />
    <path
       d="m 22.85814,64.317549 c -1.41184,-0.685023 -2.646726,-1.043487 -3.498083,-1.231082 -0.02131,-0.07298 -0.03266,-0.11087 -0.03266,-0.11087 -0.296192,-0.0065 -0.605292,-0.02734 -0.922746,-0.0592 -0.14581,-0.01938 -0.233916,-0.02734 -0.257459,-0.03035 -0.05012,-0.0043 0.725287,-0.329616 1.991309,-0.867301 0.009,7.53e-4 0.01442,7.53e-4 0.01442,7.53e-4 0,0 0.05925,-0.02734 0.170889,-0.07965 3.575548,-1.520441 10.671201,-4.590966 14.480664,-7.083506 4.101095,-2.682417 5.232693,-5.373187 5.453696,-7.410064 0.890848,2.115088 0.186821,4.204364 -0.0045,4.696496 v 0 c 0,7.75e-4 0,0.0022 -7.58e-4,0.0022 v 0 c 0,7.53e-4 0,0.0015 -7.6e-4,0.0022 v 0 c 0,7.54e-4 0,7.54e-4 -7.6e-4,0.0015 v 0 c 0,7.53e-4 0,7.53e-4 0,0.0015 v 0 c 0,0 -7.59e-4,7.53e-4 -7.59e-4,7.53e-4 v 0 c -7.6e-4,0.0022 -0.0015,0.0043 -0.0024,0.0065 v 0 c 0,7.53e-4 -7.59e-4,0.0022 -7.59e-4,0.0022 v 0 c -7.6e-4,7.53e-4 -7.6e-4,0.0015 -7.6e-4,0.0015 v 0 c -7.58e-4,7.75e-4 -7.58e-4,0.0015 -7.58e-4,0.0022 v 0 c -7.6e-4,0 -7.6e-4,7.54e-4 -7.6e-4,7.54e-4 v 0 c 0,7.75e-4 -7.6e-4,0.0015 -7.6e-4,0.0022 v 0 c 0,0 0,7.53e-4 -7.6e-4,0.0015 v 0 c -0.0015,0.0043 -0.003,0.0086 -0.0045,0.01292 v 0 c 0,0 0,7.53e-4 0,7.53e-4 v 0 c -0.0054,0.01292 -0.0099,0.02282 -0.01356,0.03186 v 0 c 0,7.53e-4 0,7.53e-4 0,7.53e-4 v 0 c -0.0054,0.01292 -0.009,0.02153 -0.01141,0.02734 v 0 c 0,7.75e-4 -7.6e-4,7.75e-4 -7.6e-4,0.0015 v 0 c -7.6e-4,0.0022 -0.0024,0.0043 -0.003,0.0065 v 0 c 0,0 0,0 0,7.54e-4 v 0 c 0,7.75e-4 -7.6e-4,0.0015 -7.6e-4,0.0015 v 0 0 0 0 0 0 0 0 0 c -0.461753,0.821747 -0.906799,1.995113 -1.649551,2.779638 -0.281761,0.297711 -0.606811,0.590106 -0.96072,0.8749 0,0 0,-0.0015 -7.6e-4,-0.0015 -0.04405,0.03638 -0.08809,0.07212 -0.132914,0.107855 -2.542678,1.993584 -6.416695,3.577059 -6.416695,3.577059 v 0 c -0.230116,0.162537 -0.669086,0.389593 -1.212861,0.644012 -1.87435,0.877182 -4.994222,2.081698 -5.120292,2.131062 v 0 0 0 c -0.0015,0 -0.0024,7.53e-4 -0.003,7.53e-4 v 0 0 0 h -7.6e-4 v 0 c 0,7.54e-4 0,7.54e-4 0,7.54e-4 v 0 0 0 0 0 c 0.431375,0.119265 0.845282,0.270371 1.243241,0.442014 -1.468801,0.05769 -2.575337,0.495942 -3.097087,1.509806 M 40.20968,52.251461 v 0 0 m -7.6e-4,-7.53e-4 v 0 0 m -0.04177,-0.09881 c 0,0 0.01055,0.02433 0.04177,0.09795 -0.006,-0.01292 -0.04177,-0.09795 -0.04177,-0.09795"
       style="fill:#e8330c;fill-opacity:1;fill-rule:nonzero;stroke:none;stroke-width:0.0759462"
       id="path1119" />
    <path
       d="m 45.410365,74.313606 c -0.814144,-0.882499 -1.534873,-1.547027 -2.039917,-1.982195 0.903001,0.103334 1.593352,0.328841 1.831065,0.757163 0.132914,0.238488 0.196702,0.668338 0.208843,1.225032"
       style="fill:#d61c07;fill-opacity:1;fill-rule:nonzero;stroke:none;stroke-width:0.0759462"
       id="path1121" />
    <path
       d="m 46.500951,75.572029 c -0.374414,-0.459473 -0.741235,-0.878711 -1.090586,-1.258423 -0.01206,-0.556694 -0.07595,-0.986544 -0.208844,-1.225032 -0.237712,-0.428322 -0.928063,-0.653893 -1.831064,-0.757163 -0.469346,-0.404039 -0.752625,-0.610622 -0.752625,-0.610622 -0.05318,-0.245312 -0.108609,-0.49592 -0.167079,-0.750339 0.08051,-7.75e-4 0.158726,-0.0015 0.234675,-0.0015 0.364541,0 0.685793,0.01076 0.945529,0.02583 v 0 l 0.0075,0.09645 c 0.909076,0.281006 1.761193,0.679727 2.553311,1.168801 v 0 c 0.166326,0.661493 0.289355,1.707283 0.3091,3.312027"
       style="fill:#e8330c;fill-opacity:1;fill-rule:nonzero;stroke:none;stroke-width:0.0759462"
       id="path1123" />
    <path
       d="m 61.522352,26.51002 c 0,2.039159 -1.734613,6.467588 -3.861867,9.332262 -2.128771,2.864695 -4.082106,4.472475 -5.253956,4.602354 0,0 -0.54985,-1.229575 -1.054894,-2.636111 2.304968,-0.776151 5.295729,-2.865449 6.894396,-5.938213 1.302478,-2.505478 2.644446,-4.125399 2.985447,-6.905037 0.179221,0.572624 0.290874,1.10426 0.290874,1.544745"
       style="fill:#ff7300;fill-opacity:1;fill-rule:nonzero;stroke:none;stroke-width:0.0759462"
       id="path1125" />
    <path
       d="m 56.651162,25.390583 c 0,0 1.692839,0.196766 2.701405,-0.943273 0,0 -1.037424,1.345008 0.22784,1.816645 0,0 -1.784736,1.081483 -3.497323,0.527071 -1.711827,-0.552884 0.568078,-1.400443 0.568078,-1.400443"
       style="fill:#fa8e28;fill-opacity:1;fill-rule:nonzero;stroke:none;stroke-width:0.0759462"
       id="path1127" />
    <path
       d="m 12.079094,40.790936 c 0,0 -1.953335,0.997933 -3.7775619,0.607586 C 6.4780632,41.007379 3.3969262,35.797482 1.9205322,31.631071 0.71526517,28.223374 0.69703917,26.121934 0.73045517,25.471076 1.0167712,25.84321 1.2506872,26.150028 1.3684022,26.497103 c 0.22708,0.685045 0.943252,5.047382 3.222397,8.173342 2.169785,2.977093 5.5782488,3.855029 7.1100838,2.945942 0.328848,1.640438 0.378211,3.174549 0.378211,3.174549"
       style="fill:#ff7300;fill-opacity:1;fill-rule:nonzero;stroke:none;stroke-width:0.0759462"
       id="path1129" />
    <path
       d="m 23.051042,12.457689 h -1.790811 l -0.08734,-0.05468 0.0099,-0.102474 C 21.858712,11.4226 23.64041,9.203445 23.657878,9.181421 l 0.138232,-0.01507 0.01442,0.137564 c -0.01679,0.02153 -1.606262,2.001184 -2.350535,2.958859 h 1.591072 l 0.09797,0.09731 -0.09797,0.09795"
       style="fill:#10085d;fill-opacity:1;fill-rule:nonzero;stroke:none;stroke-width:0.0759462"
       id="path1131" />
    <path
       d="m 31.938267,13.47461 -0.06607,-0.02497 -0.006,-0.137564 c 0.03948,-0.04413 0.979707,-1.068566 2.10447,-1.300208 l 0.115434,0.07599 -0.0752,0.11539 c -1.064007,0.219479 -1.989791,1.229575 -1.999663,1.239435 l -0.07292,0.03186"
       style="fill:#10085d;fill-opacity:1;fill-rule:nonzero;stroke:none;stroke-width:0.0759462"
       id="path1133" />
    <path
       d="m 32.743298,13.362212 -0.129104,-0.02885 c -0.204301,-0.09731 -0.23847,-0.397946 -0.242268,-0.432132 l 0.08809,-0.105488 0.106327,0.08654 c 0.0054,0.0577 0.04254,0.232395 0.132139,0.274935 l 0.211901,-0.05705 c 0.376693,-0.250608 0.284797,-0.700221 0.280241,-0.719209 l 0.07442,-0.116251 0.116962,0.07363 c 0.0045,0.02433 0.126068,0.598437 -0.363784,0.925017 -0.09873,0.06523 -0.190631,0.09881 -0.274924,0.09881"
       style="fill:#10085d;fill-opacity:1;fill-rule:nonzero;stroke:none;stroke-width:0.0759462"
       id="path1135" />
    <path
       d="m 21.097707,13.264238 c 0,0 1.595629,0.927299 2.994559,0.796689 0,0 -0.262774,0.553637 -1.497659,0.585541 -1.237164,0.03337 -1.4969,-1.38223 -1.4969,-1.38223"
       style="fill:#ffffff;fill-opacity:1;fill-rule:nonzero;stroke:none;stroke-width:0.0759462"
       id="path1137" />
    <path
       d="m 23.474064,17.004587 -0.0676,-7.54e-4 -0.09569,-0.10032 0.10101,-0.09494 c 0.02506,0 2.440151,0.05081 4.622844,-1.009343 2.179657,-1.059439 2.850261,-1.764978 2.856338,-1.772577 l 0.124561,-0.01507 c 0.0069,0.0043 0.764778,0.470862 2.056623,-0.171578 l 0.129857,0.04327 -0.04329,0.131321 c -1.184002,0.589331 -1.951058,0.312135 -2.179655,0.199781 -0.197456,0.186863 -0.959202,0.837678 -2.858616,1.760435 -2.019409,0.981205 -4.23324,1.029816 -4.646387,1.029816"
       style="fill:#10085d;fill-opacity:1;fill-rule:nonzero;stroke:none;stroke-width:0.0759462"
       id="path1139" />
    <path
       d="m 26.144331,19.335386 -0.03113,-0.0043 c -0.856672,-0.27416 -1.31235,-2.361929 -1.330576,-2.450776 l 0.0752,-0.11539 0.116209,0.07513 c 0.122279,0.572625 0.576431,2.105982 1.19995,2.304966 l 0.06379,0.12314 -0.09341,0.0676"
       style="fill:#10085d;fill-opacity:1;fill-rule:nonzero;stroke:none;stroke-width:0.0759462"
       id="path1141" />
    <path
       d="m 38.755957,20.173818 c -3.76693,2.164474 -6.523778,5.77193 -8.247756,8.019933 l -0.318974,0.417709 c -1.93663,2.513809 -3.204929,5.164322 -3.220879,5.18712 l -0.08277,0.06071 h -0.0084 l -0.08277,-0.05317 C 26.778468,33.7833 25.275478,31.345463 24.371717,29.682227 23.42239,27.950661 21.675628,23.052124 21.082486,20.89525 20.946537,20.386413 20.831865,19.907198 20.740729,19.475065 20.589602,18.707999 20.506056,18.077658 20.468082,17.652349 h 0.03038 l 0.02202,-0.0086 0.137457,-0.04564 c 0.03797,0.432886 0.121526,1.101224 0.296191,1.913069 0.08353,0.410884 0.189856,0.858969 0.318215,1.329078 0.577191,2.1037 2.346737,7.056143 3.265686,8.749002 0.775411,1.41335 1.989791,3.410723 2.332309,3.965135 0.31138,-0.615165 1.488544,-2.885965 3.166956,-5.065617 l 0.311379,-0.410109 c 1.70879,-2.232825 4.427665,-5.787107 8.133838,-7.982711 l 0.01528,0.0086 c 0.08355,0.02282 0.174678,0.04564 0.258216,0.06824"
       style="fill:#10085d;fill-opacity:1;fill-rule:nonzero;stroke:none;stroke-width:0.0759462"
       id="path1143" />
    <path
       d="m 45.027596,31.21868 -0.04329,-0.01076 -0.0448,-0.130676 c 0.723769,-1.478676 0.0024,-3.953003 -0.0054,-3.978061 -0.01442,-0.0394 -1.577403,-4.427676 -3.914267,-5.848614 -2.343699,-1.423994 -5.092193,-1.38223 -5.120293,-1.381477 l -0.09948,-0.09494 0.09494,-0.10032 c 0.03038,7.53e-4 2.835833,-0.04327 5.2251,1.410324 2.397621,1.456653 3.934774,5.772662 4.000085,5.954941 0.03113,0.108716 0.751868,2.577618 -0.0054,4.124624 l -0.08734,0.05382"
       style="fill:#10085d;fill-opacity:1;fill-rule:nonzero;stroke:none;stroke-width:0.0759462"
       id="path1145" />
    <path
       d="m 51.322777,33.074807 -0.08278,-0.04478 C 51.225577,33.006557 49.696773,30.634686 48.270505,29.04133 46.86474,27.469244 45.03064,27.172286 45.011653,27.16925 l -0.08049,-0.11173 0.110116,-0.08116 c 0.07899,0.01076 1.920679,0.308325 3.375048,1.934339 1.436143,1.605497 2.974054,3.990203 2.988484,4.013755 l -0.02887,0.135196 -0.05315,0.01507"
       style="fill:#10085d;fill-opacity:1;fill-rule:nonzero;stroke:none;stroke-width:0.0759462"
       id="path1147" />
    <path
       d="m 21.099984,33.492516 c -0.217205,0 -2.178137,-0.09494 -3.413781,-2.323954 -1.19843,-2.162191 -1.616134,-6.077219 -1.565251,-6.23291 l 0.123033,-0.06308 0.06532,0.111731 c -0.009,0.186002 0.355429,3.938557 1.547023,6.090114 1.218178,2.196379 3.201134,2.226001 3.220879,2.227508 l 0.113152,0.0775 -0.07063,0.113238 h -0.01981"
       style="fill:#10085d;fill-opacity:1;fill-rule:nonzero;stroke:none;stroke-width:0.0759462"
       id="path1149" />
    <path
       d="m 11.920368,27.833005 -0.05772,-0.01938 -0.02131,-0.136703 c 1.349564,-1.831822 2.267755,-2.053583 2.570019,-2.126498 l 0.06151,-0.01507 0.131386,0.0282 -0.02887,0.137564 -0.118469,0.04026 c -0.284039,0.06824 -1.151344,0.278724 -2.456859,2.052054 l -0.07974,0.04026"
       style="fill:#10085d;fill-opacity:1;fill-rule:nonzero;stroke:none;stroke-width:0.0759462"
       id="path1151" />
    <path
       d="m 13.51144,25.998148 -0.09722,-0.08504 c -0.01292,-0.0958 -0.287837,-2.348259 0.529345,-4.11173 l 0.129103,-0.04779 0.04708,0.129814 c -0.792118,1.712579 -0.514154,3.981851 -0.511117,4.004628 l -0.08506,0.109362 -0.01206,7.75e-4"
       style="fill:#10085d;fill-opacity:1;fill-rule:nonzero;stroke:none;stroke-width:0.0759462"
       id="path1153" />
    <path
       d="m 11.920368,40.963333 -0.06988,-0.02885 -0.01529,-0.117758 c 0.003,-0.0086 0.156444,-0.432133 -0.230878,-3.186712 -0.371371,-2.636841 -1.512082,-3.715289 -2.0596546,-4.233232 l -0.1397386,-0.134335 -7.6e-4,-0.139072 H 9.54087 l 0.1389851,0.131322 c 0.5635229,0.533142 1.7368899,1.642719 2.1181409,4.34716 0.268089,1.906245 0.283279,2.722675 0.254419,3.06975 2.604195,-1.624486 3.878572,-4.912207 4.430702,-6.334674 l 0.08506,-0.2195 c 0.518709,-1.320703 1.105015,-3.011258 1.11109,-3.027964 l 0.124561,-0.06006 0.06,0.123787 c -0.006,0.01722 -0.593899,1.711824 -1.114131,3.036338 l -0.0843,0.217972 c -0.571875,1.474112 -1.910806,4.926631 -4.696513,6.541988 l -0.04861,0.01292"
       style="fill:#10085d;fill-opacity:1;fill-rule:nonzero;stroke:none;stroke-width:0.0759462"
       id="path1155" />
    <path
       d="m 9.2235185,41.589132 c -0.2453058,0 -0.495929,-0.01722 -0.7457922,-0.05856 l -0.07974,-0.113237 0.1116445,-0.07965 c 1.6404382,0.275688 3.3507452,-0.55213 3.3674552,-0.560483 l 0.130632,0.04564 -0.04405,0.129815 c -0.06153,0.03122 -1.317665,0.636434 -2.7401382,0.636434"
       style="fill:#10085d;fill-opacity:1;fill-rule:nonzero;stroke:none;stroke-width:0.0759462"
       id="path1157" />
    <path
       d="m 30.739077,35.87494 -0.03722,-0.0086 C 27.809063,34.624612 24.73856,35.371162 24.708182,35.378761 l -0.118469,-0.07061 0.06988,-0.119265 c 0.0319,-0.0086 3.162398,-0.770855 6.118226,0.497449 l 0.05012,0.128307 -0.08885,0.0592"
       style="fill:#10085d;fill-opacity:1;fill-rule:nonzero;stroke:none;stroke-width:0.0759462"
       id="path1159" />
    <path
       d="m 34.575878,36.784027 -0.0843,-0.04779 0.03569,-0.134335 c 0.03494,-0.01938 3.467702,-2.078642 4.774737,-6.096208 l 0.123033,-0.06308 0.06303,0.122925 c -1.331332,4.09046 -4.827895,6.1843 -4.86283,6.204816 l -0.04936,0.01292"
       style="fill:#10085d;fill-opacity:1;fill-rule:nonzero;stroke:none;stroke-width:0.0759462"
       id="path1161" />
    <path
       d="m 22.887758,42.756426 -0.09266,-0.06824 c -0.0045,-0.01507 -0.493648,-1.512845 -0.98654,-3.159354 -0.491368,-1.643473 -1.370826,-4.202104 -1.380699,-4.227163 l 0.06075,-0.124647 0.123787,0.06071 c 0.009,0.02497 0.890088,2.5875 1.383739,4.234762 0.490612,1.644227 0.979706,3.140384 0.984263,3.154808 l -0.06228,0.123786 -0.03038,0.0043"
       style="fill:#10085d;fill-opacity:1;fill-rule:nonzero;stroke:none;stroke-width:0.0759462"
       id="path1163" />
    <path
       d="m 58.137429,21.980582 c -0.623519,1.284256 -1.207545,2.066499 -1.746763,2.332306 l -0.09873,-0.167057 c 0.379732,-0.189878 0.941732,-0.751868 1.670816,-2.248003 l 0.129104,-0.04564 0.04557,0.128307"
       style="fill:#10085d;fill-opacity:1;fill-rule:nonzero;stroke:none;stroke-width:0.0759462"
       id="path1165" />
    <path
       d="m 56.831154,24.892359 c -0.133668,0 -0.246066,-0.03186 -0.339481,-0.09645 -0.267328,-0.18385 -0.25214,-0.554412 -0.25138,-0.569589 l 0.102516,-0.09193 0.09266,0.101827 c 0,0.0022 -0.009,0.277971 0.167079,0.399475 0.145056,0.09946 0.396439,0.0775 0.724527,-0.06674 1.031349,-0.453402 1.514367,-1.207552 1.519683,-1.215905 l 0.134421,-0.03035 0.03113,0.134336 c -0.02045,0.03272 -0.516434,0.812619 -1.606262,1.290327 -0.219485,0.09645 -0.411629,0.145099 -0.574913,0.145099"
       style="fill:#10085d;fill-opacity:1;fill-rule:nonzero;stroke:none;stroke-width:0.0759462"
       id="path1167" />
    <path
       d="m 57.246581,25.566768 c -0.243788,0 -0.43821,-0.05317 -0.587066,-0.160168 -0.274924,-0.198919 -0.288595,-0.520979 -0.270369,-0.62806 l 0.112398,-0.07965 0.08049,0.112377 c -7.59e-4,0.0022 -0.03113,0.275666 0.192138,0.436675 0.234673,0.169426 0.906039,0.307593 2.760644,-0.675917 l 0.132914,0.04026 -0.04101,0.132183 c -1.031348,0.547566 -1.827264,0.822501 -2.380152,0.822501"
       style="fill:#10085d;fill-opacity:1;fill-rule:nonzero;stroke:none;stroke-width:0.0759462"
       id="path1169" />
    <path
       d="m 58.798919,26.361175 -0.05468,-0.01507 c -0.883253,-0.596176 -1.078435,-0.870358 -1.08527,-0.881746 l 0.0243,-0.136057 0.135175,0.02433 c 0.003,0.0043 0.196701,0.265828 1.035906,0.830854 l 0.02581,0.135196 -0.08127,0.04327"
       style="fill:#10085d;fill-opacity:1;fill-rule:nonzero;stroke:none;stroke-width:0.0759462"
       id="path1171" />
    <path
       d="m 55.031989,29.3466 -0.07063,-0.03122 0.0054,-0.13821 c 1.419412,-1.324513 2.612527,-2.128027 2.856315,-2.28826 v -1.16047 l 0.09645,-0.09795 0.09797,0.09795 v 1.213623 l -0.04405,0.08288 c -0.01356,0.0086 -1.300957,0.828572 -2.873803,2.295859 l -0.0676,0.02583"
       style="fill:#10085d;fill-opacity:1;fill-rule:nonzero;stroke:none;stroke-width:0.0759462"
       id="path1173" />
    <path
       d="m 58.268057,35.06232 -0.0448,-0.01292 -0.04101,-0.132182 c 0.01895,-0.03337 1.821949,-3.397838 2.768239,-5.90633 0.852117,-2.260166 0.354668,-3.592257 -0.0084,-4.564378 -0.04026,-0.108502 -0.08049,-0.214204 -0.115434,-0.314417 l 0.06,-0.125294 0.124561,0.06006 c 0.03494,0.100321 0.07367,0.20344 0.113927,0.310607 0.373654,1.002497 0.885533,2.374093 0.0084,4.702589 -0.950847,2.520656 -2.759886,5.895717 -2.778114,5.929882 l -0.08734,0.05167"
       style="fill:#10085d;fill-opacity:1;fill-rule:nonzero;stroke:none;stroke-width:0.0759462"
       id="path1175" />
    <path
       d="m 21.940709,49.10858 -0.08355,-0.04865 0.03419,-0.134335 c 0.900721,-0.535425 8.917603,-5.25093 13.897396,-6.393919 l 1.103495,-4.007684 c 0.413147,-1.503735 1.399687,-5.095993 1.399687,-5.095993 l 0.07367,-0.06975 0.09722,0.03574 c 0.01593,0.02153 1.704234,2.147747 4.044136,3.79122 2.339143,1.640438 6.990088,3.633268 9.759847,3.185958 -0.246067,-0.555943 -1.303238,-2.989259 -1.581202,-4.357798 l 0.07595,-0.11539 0.11468,0.07599 c 0.310622,1.523497 1.606262,4.401841 1.619174,4.430711 l -0.0024,0.08503 -0.06911,0.05167 c -2.806174,0.536934 -7.62724,-1.511331 -10.028658,-3.196569 -2.006499,-1.407289 -3.536057,-3.167724 -3.965912,-3.682632 -0.205054,0.749585 -0.991097,3.612752 -1.349563,4.913714 l -1.118688,4.063872 -0.07292,0.07061 c -4.945617,1.11186 -12.995912,5.84786 -13.896635,6.383284 l -0.05089,0.01507"
       style="fill:#10085d;fill-opacity:1;fill-rule:nonzero;stroke:none;stroke-width:0.0759462"
       id="path1177" />
    <path
       d="m 39.382514,81.000651 -0.08581,-0.05231 C 39.240493,80.841989 33.613649,70.270315 30.638078,66.716033 27.679973,63.185281 24.718829,62.466825 24.689211,62.46 l -0.0752,-0.08805 0.06228,-0.09731 c 0.04557,-0.01722 4.696513,-1.822716 8.199152,-3.498072 4.065401,-1.944996 6.708327,-4.480828 7.445006,-7.141222 l 0.119998,-0.0676 0.06835,0.119912 c -0.751109,2.715075 -3.432009,5.295729 -7.549811,7.265008 -3.026457,1.4483 -6.908827,2.992292 -7.947771,3.400873 0.816421,0.269618 3.302899,1.284256 5.776468,4.237045 2.988482,3.570234 8.624449,14.160164 8.68217,14.266491 l -0.04026,0.131322 -0.04708,0.01292"
       style="fill:#10085d;fill-opacity:1;fill-rule:nonzero;stroke:none;stroke-width:0.0759462"
       id="path1179" />
    <path
       d="m 41.687482,77.768386 -0.0843,-0.04865 C 41.357872,77.297481 40.013626,75.009974 38.31167,72.114149 31.036024,59.738725 31.036024,59.738725 31.06944,59.667338 l 0.173925,0.08504 -0.08581,-0.04413 0.09037,-0.03789 c 0.09266,0.19978 4.219572,7.220209 7.233117,12.345802 1.700434,2.895825 3.045443,5.182578 3.290748,5.607111 l -0.03569,0.132828 -0.04861,0.01292"
       style="fill:#10085d;fill-opacity:1;fill-rule:nonzero;stroke:none;stroke-width:0.0759462"
       id="path1181" />
    <path
       d="m 49.950428,75.803671 -0.07595,-0.03724 c -3.061392,-3.855786 -6.22531,-4.572735 -6.256448,-4.579559 l -0.07595,-0.0874 c 0,0 -0.437451,-5.059546 -0.449601,-5.190156 l 0.08734,-0.106349 0.107081,0.08805 c 0.01055,0.121418 0.390364,4.514993 0.442765,5.122579 0.492132,0.130676 3.448717,1.043487 6.29822,4.63118 l -0.01679,0.136703 -0.06075,0.02196"
       style="fill:#10085d;fill-opacity:1;fill-rule:nonzero;stroke:none;stroke-width:0.0759462"
       id="path1183" />
    <path
       d="m 42.218344,89.287144 -0.02659,-0.0043 -0.06911,-0.119266 c 0.767818,-2.880626 0.55289,-6.655915 0.549092,-6.689326 l 0.08809,-0.106349 0.106327,0.0874 c 0.0045,0.03423 0.221003,3.847429 -0.554407,6.758453 l -0.09341,0.07298"
       style="fill:#10085d;fill-opacity:1;fill-rule:nonzero;stroke:none;stroke-width:0.0759462"
       id="path1185" />
    <path
       d="m 14.1623,64.16795 -0.07367,-0.03272 0.009,-0.139072 c 0.769335,-0.676691 0.74883,-1.282727 0.74883,-1.288798 l 0.09266,-0.102474 0.101763,0.09257 c 0.0015,0.02885 0.02581,0.707067 -0.814904,1.446018 l -0.06379,0.02433"
       style="fill:#10085d;fill-opacity:1;fill-rule:nonzero;stroke:none;stroke-width:0.0759462"
       id="path1187" />
    <path
       d="m 24.711986,47.53193 -0.0919,-0.06308 -1.888782,-4.966135 0.05772,-0.126155 0.126069,0.05705 1.888023,4.96536 -0.05696,0.1268 -0.03419,0.0065"
       style="fill:#10085d;fill-opacity:1;fill-rule:nonzero;stroke:none;stroke-width:0.0759462"
       id="path1189" />
    <path
       d="m 54.578589,98.971798 -0.09722,-0.08956 -0.950847,-12.77111 0.08962,-0.103335 0.104799,0.09042 0.951604,12.768828 -0.09113,0.104842 h -0.0069"
       style="fill:#10085d;fill-opacity:1;fill-rule:nonzero;stroke:none;stroke-width:0.0759462"
       id="path1191" />
    <path
       d="m 39.036958,23.340789 -0.07899,-0.04176 C 38.00181,21.947949 35.579886,19.59743 35.559381,19.579196 l -0.809586,-0.530861 -4.107932,-2.732556 -0.02734,-0.135196 0.136703,-0.02734 4.924353,3.270241 c 0.07292,0.04715 2.519894,2.459904 3.441122,3.762373 l -0.0243,0.135842 -0.05544,0.01938"
       style="fill:#10085d;fill-opacity:1;fill-rule:nonzero;stroke:none;stroke-width:0.0759462"
       id="path1193" />
    <path
       d="m 25.239813,25.335127 -0.09645,-0.08288 c -0.148092,-0.956922 0.003,-1.734623 0.45036,-2.311812 0.63871,-0.823255 1.6374,-0.930335 1.679931,-0.934899 l 0.106327,0.08805 -0.08734,0.106349 c -0.0084,0.0015 -0.959959,0.105487 -1.546263,0.861983 -0.41087,0.532389 -0.54985,1.259176 -0.40935,2.15991 l -0.08127,0.112376 -0.01593,7.54e-4"
       style="fill:#10085d;fill-opacity:1;fill-rule:nonzero;stroke:none;stroke-width:0.0759462"
       id="path1195" />
    <path
       d="m 28.097668,1.819902 -0.05165,-0.01507 C 27.070868,1.207127 25.079559,1.136494 25.059814,1.13574 l -0.09494,-0.100966 0.101763,-0.09408 c 0.08277,0.0022 2.061938,0.07212 3.081136,0.697939 l 0.03266,0.13369 -0.08277,0.04779"
       style="fill:#1ea6e0;fill-opacity:1;fill-rule:nonzero;stroke:none;stroke-width:0.0759462"
       id="path1197" />
    <path
       d="m 27.50073,4.160561 c -0.676681,0 -1.370069,-0.07901 -1.447534,-0.09795 l -0.06988,-0.117759 0.117716,-0.07212 c 0.110891,0.02799 1.686006,0.194398 2.360407,0.0015 l 0.120751,0.06674 -0.0676,0.120772 c -0.258976,0.07449 -0.633391,0.09881 -1.013883,0.09881"
       style="fill:#1ea6e0;fill-opacity:1;fill-rule:nonzero;stroke:none;stroke-width:0.0759462"
       id="path1199" />
    <path
       d="m 30.539337,6.084287 -0.09037,-0.05856 0.05164,-0.128307 c 0.513397,-0.224817 1.272857,-0.611375 1.351082,-0.768573 l 0.132139,-0.04327 0.04329,0.130675 C 31.887379,5.494201 30.79603,5.98179 30.577305,6.076707 l -0.03798,0.0086"
       style="fill:#1ea6e0;fill-opacity:1;fill-rule:nonzero;stroke:none;stroke-width:0.0759462"
       id="path1201" />
    <path
       d="M 32.655959,10.02362 32.562549,9.95538 C 32.351424,9.290852 33.192902,8.36887 33.229355,8.329366 l 0.136703,-0.0043 0.006,0.13821 c -0.0075,0.0086 -0.800473,0.877936 -0.623519,1.43463 l -0.06303,0.122279 -0.02962,0.0043"
       style="fill:#1ea6e0;fill-opacity:1;fill-rule:nonzero;stroke:none;stroke-width:0.0759462"
       id="path1203" />
    <path
       d="m 26.049399,10.998776 c -0.203526,0.473144 -0.514915,0.792878 -0.695666,0.715399 -0.182278,-0.07815 -0.164044,-0.523261 0.03722,-0.996405 0.202772,-0.473143 0.514154,-0.793632 0.695666,-0.71542 0.182278,0.07815 0.164797,0.524036 -0.03722,0.996426"
       style="fill:#10085d;fill-opacity:1;fill-rule:nonzero;stroke:none;stroke-width:0.0759462"
       id="path1205" />
    <path
       d="m 22.229306,9.302128 c -0.20202,0.47239 -0.513397,0.792879 -0.694909,0.714646 -0.181503,-0.0775 -0.164797,-0.524015 0.03873,-0.997158 0.202773,-0.471637 0.514155,-0.792125 0.694149,-0.714667 0.182278,0.07815 0.165572,0.524789 -0.03798,0.997179"
       style="fill:#10085d;fill-opacity:1;fill-rule:nonzero;stroke:none;stroke-width:0.0759462"
       id="path1207" />
    <path
       d="m 49.017808,110.01287 -0.08278,-0.0478 -10.047682,-17.422806 0.03494,-0.129814 0.129858,0.03488 10.047681,17.42283 -0.03494,0.12981 -0.04708,0.0129"
       style="fill:#10085d;fill-opacity:1;fill-rule:nonzero;stroke:none;stroke-width:0.0759462"
       id="path1209" />
    <path
       d="m 15.091881,77.157032 -0.08734,-0.05705 -5.484076,-12.79998 0.050117,-0.124647 0.1245613,0.05016 5.4840737,12.799205 -0.05012,0.124647 -0.03722,0.0086"
       style="fill:#10085d;fill-opacity:1;fill-rule:nonzero;stroke:none;stroke-width:0.0759462"
       id="path1211" />
    <path
       d="m 67.069462,39.653264 -0.08962,-0.06372 -4.685121,-13.293617 0.05772,-0.121634 0.121504,0.05856 4.685121,13.294371 -0.05772,0.120773 -0.0319,0.0043"
       style="fill:#10085d;fill-opacity:1;fill-rule:nonzero;stroke:none;stroke-width:0.0759462"
       id="path1213" />
    <path
       d="m 2.0747032,22.743838 -0.110116,-0.07599 -0.854395,0.158661 -0.0767,0.11087 0.09341,0.0775 0.01744,-0.0015 0.854395,-0.158662 0.07595,-0.11087"
       style="fill:#10085d;fill-opacity:1;fill-rule:nonzero;stroke:none;stroke-width:0.0759462"
       id="path1215" />
    <path
       d="m 4.2892942,24.230867 -0.132914,-0.02196 c -0.615922,0.440485 -0.728322,0.356203 -0.728322,0.356956 -0.02506,-0.02153 -0.0099,-0.134335 0.02734,-0.232395 0.42226,-0.418462 0.783763,-1.175647 0.850597,-1.556134 l -0.07746,-0.109363 -0.109363,0.07664 c -0.09037,0.51338 -0.742752,1.663969 -1.195392,1.69512 -0.08809,0.0022 -0.150374,-0.01722 -0.195949,-0.0676 -0.12835,-0.141224 -0.110116,-0.462509 -0.0919,-0.587824 0.111645,-0.157155 0.208844,-0.364535 0.289356,-0.631116 0.0099,-0.02885 0.243029,-0.707821 0.243029,-1.20527 l -0.09494,-0.09494 -0.09494,0.09494 c 0,0.465566 -0.230118,1.136164 -0.233913,1.146799 -0.14962,0.495921 -0.351633,0.784526 -0.582508,0.83389 -0.278722,0.0577 -0.533903,-0.230889 -0.53618,-0.233924 l -0.133668,-0.0086 -0.0099,0.134335 c 0.01141,0.01292 0.270369,0.306818 0.603012,0.306818 l 0.115433,-0.01292 c 0.08355,-0.01722 0.161008,-0.05856 0.234673,-0.113238 0.0024,0.164044 0.03038,0.364556 0.151127,0.497449 0.07823,0.08654 0.185314,0.131321 0.312138,0.131321 l 0.03873,-0.0015 c 0.09797,-0.0065 0.196701,-0.05382 0.294671,-0.11539 7.6e-4,0.07513 0.01529,0.151127 0.07823,0.200426 l 0.14962,0.04779 c 0.171643,0 0.431375,-0.129169 0.808069,-0.398721 l 0.02131,-0.132183"
       style="fill:#10085d;fill-opacity:1;fill-rule:nonzero;stroke:none;stroke-width:0.0759462"
       id="path1217"
       inkscape:export-filename="path1217.png"
       inkscape:export-xdpi="19.540926"
       inkscape:export-ydpi="19.540926" />
  </g>
</svg>
